<?xml version="1.0" encoding="iso-8859-1"?>
<!-- Generator: Adobe Illustrator 19.0.0, SVG Export Plug-In . SVG Version: 6.00 Build 0)  -->
<svg version="1.1" id="Layer_1" xmlns="http://www.w3.org/2000/svg" xmlns:xlink="http://www.w3.org/1999/xlink" x="0px" y="0px"
	 viewBox="0 0 512 512" style="enable-background:new 0 0 512 512;" xml:space="preserve">
<path style="fill:#507C5C;" d="M418.913,235.839H77.57c-8.569,0-15.515-6.946-15.515-15.515V103.951
	c0-8.569,6.946-15.515,15.515-15.515H434.43c8.569,0,15.515,6.946,15.515,15.515s-6.946,15.515-15.515,15.515H93.085v85.343h325.828
	c8.569,0,15.515,6.946,15.515,15.515C434.428,228.893,427.482,235.839,418.913,235.839z"/>
<rect x="108.599" y="26.368" style="fill:#CFF09E;" width="294.801" height="77.591"/>
<g>
	<path style="fill:#507C5C;" d="M403.401,119.466H108.599c-8.569,0-15.515-6.946-15.515-15.515V26.368
		c0-8.569,6.946-15.515,15.515-15.515h294.804c8.569,0,15.515,6.946,15.515,15.515v77.583
		C418.916,112.52,411.97,119.466,403.401,119.466z M124.114,88.436h263.774V41.883H124.114V88.436z"/>
	<path style="fill:#507C5C;" d="M192.88,436.04h-19.602c-8.569,0-15.515-6.946-15.515-15.515c0-8.569,6.946-15.515,15.515-15.515
		h19.602c8.569,0,15.515,6.946,15.515,15.515C208.395,429.094,201.448,436.04,192.88,436.04z"/>
	<path style="fill:#507C5C;" d="M265.8,436.04h-19.602c-8.569,0-15.515-6.946-15.515-15.515c0-8.569,6.946-15.515,15.515-15.515
		H265.8c8.569,0,15.515,6.946,15.515,15.515C281.315,429.094,274.369,436.04,265.8,436.04z"/>
	<path style="fill:#507C5C;" d="M338.722,436.04H319.12c-8.569,0-15.515-6.946-15.515-15.515c0-8.569,6.946-15.515,15.515-15.515
		h19.602c8.569,0,15.515,6.946,15.515,15.515C354.237,429.094,347.291,436.04,338.722,436.04z"/>
	<path style="fill:#507C5C;" d="M465.457,501.147H15.515C6.946,501.147,0,494.201,0,485.632V259.116
		c0-8.569,6.946-15.515,15.515-15.515h480.97c8.569,0,15.515,6.946,15.515,15.515v146.604c0,8.569-6.946,15.515-15.515,15.515
		c-8.569,0-15.515-6.946-15.515-15.515V274.631H31.03v195.486h434.426c8.569,0,15.515,6.946,15.515,15.515
		C480.972,494.201,474.025,501.147,465.457,501.147z"/>
</g>
<rect x="46.542" y="181.526" style="fill:#CFF09E;" width="418.921" height="77.591"/>
<path style="fill:#507C5C;" d="M465.457,274.631H46.543c-8.569,0-15.515-6.946-15.515-15.515v-77.583
	c0-8.569,6.946-15.515,15.515-15.515h418.915c8.569,0,15.515,6.946,15.515,15.515v77.583
	C480.972,267.685,474.025,274.631,465.457,274.631z M62.058,243.601h387.885v-46.553H62.058V243.601z"/>
<g>
</g>
<g>
</g>
<g>
</g>
<g>
</g>
<g>
</g>
<g>
</g>
<g>
</g>
<g>
</g>
<g>
</g>
<g>
</g>
<g>
</g>
<g>
</g>
<g>
</g>
<g>
</g>
<g>
</g>
</svg>
