<?xml version="1.0" encoding="iso-8859-1"?>
<!-- Generator: Adobe Illustrator 19.0.0, SVG Export Plug-In . SVG Version: 6.00 Build 0)  -->
<svg version="1.1" id="Layer_1" xmlns="http://www.w3.org/2000/svg" xmlns:xlink="http://www.w3.org/1999/xlink" x="0px" y="0px"
	 viewBox="0 0 512 512" style="enable-background:new 0 0 512 512;" xml:space="preserve">
<g>
	<path style="fill:#507C5C;" d="M209.483,213.485c-58.858,0-106.742-47.886-106.742-106.743S150.624,0,209.483,0
		c58.858,0,106.742,47.884,106.742,106.742S268.339,213.485,209.483,213.485z M209.483,27.413
		c-43.742,0-79.329,35.587-79.329,79.329s35.587,79.33,79.329,79.33s79.329-35.588,79.329-79.33S253.225,27.413,209.483,27.413z"/>
	<path style="fill:#507C5C;" d="M331.66,512c-58.858,0-106.742-47.884-106.742-106.742s47.884-106.743,106.742-106.743
		S438.402,346.4,438.402,405.258S390.518,512,331.66,512z M331.66,325.928c-43.742,0-79.329,35.588-79.329,79.33
		s35.587,79.329,79.329,79.329s79.329-35.587,79.329-79.329S375.402,325.928,331.66,325.928z"/>
</g>
<path style="fill:#CFF09E;" d="M238.625,405.258c0-49.067,37.992-89.233,86.159-92.756c-11.621-33.084-37.077-59.654-69.431-72.774
	l-45.869,79.448l-45.869-79.448c-44.74,18.142-76.308,61.994-76.308,113.242v144.524h232.34
	C273.943,491.598,238.625,452.565,238.625,405.258z"/>
<g>
	<path style="fill:#507C5C;" d="M319.645,511.201H87.305c-7.57,0-13.707-6.138-13.707-13.707V352.971
		c0-55.604,33.311-105.041,84.865-125.945c6.337-2.566,13.601-0.074,17.021,5.85l33.999,58.888l33.999-58.888
		c3.418-5.923,10.679-8.42,17.021-5.85c36.153,14.659,64.297,44.159,77.214,80.932c1.415,4.027,0.872,8.483-1.467,12.055
		c-2.34,3.569-6.208,5.847-10.465,6.158c-41.187,3.013-73.451,37.752-73.451,79.086c0,39.753,29.693,73.562,69.068,78.642
		c7.169,0.925,12.388,7.259,11.925,14.473C332.859,505.587,326.874,511.201,319.645,511.201z M101.011,483.788h158.444
		c-21.318-19.643-34.538-47.764-34.538-78.53c0-49.226,34.01-91.502,80.261-103.385c-10.04-18.781-25.429-34.249-44.248-44.395
		l-39.578,68.551c-2.448,4.241-6.973,6.853-11.87,6.853c-4.897,0-9.422-2.612-11.87-6.853l-39.583-68.561
		c-34.99,18.782-57.017,55.101-57.017,95.501V483.788z"/>
	<path style="fill:#507C5C;" d="M331.66,450.034c-7.57,0-13.707-6.138-13.707-13.707v-62.138c0-7.569,6.137-13.707,13.707-13.707
		c7.57,0,13.707,6.138,13.707,13.707v62.138C345.367,443.896,339.23,450.034,331.66,450.034z"/>
	<path style="fill:#507C5C;" d="M362.729,418.965h-62.138c-7.57,0-13.707-6.138-13.707-13.707s6.136-13.707,13.707-13.707h62.138
		c7.57,0,13.707,6.138,13.707,13.707S370.299,418.965,362.729,418.965z"/>
</g>
<g>
</g>
<g>
</g>
<g>
</g>
<g>
</g>
<g>
</g>
<g>
</g>
<g>
</g>
<g>
</g>
<g>
</g>
<g>
</g>
<g>
</g>
<g>
</g>
<g>
</g>
<g>
</g>
<g>
</g>
</svg>
